<svg version="1.1" x="0px" y="0px" width="100%"
			height="100%" viewBox="0 0 432 432" enable-background="new 0 0 432 432">
	 <g id="Layer_1">
		 <g>
			 <path d="M84.647,134.337c-1.113,0.405-1.873,1.183-2.278,2.329c-0.406,1.149-0.607,3.005-0.607,5.57v40.105
				 c0,2.566,0.202,4.422,0.607,5.57c0.405,1.148,1.165,1.924,2.278,2.328c1.114,0.406,2.886,0.677,5.317,0.811v2.025
				 c-3.646-0.202-8.744-0.303-15.292-0.303c-7.833,0-13.571,0.101-17.217,0.303v-2.025c2.43-0.134,4.202-0.405,5.317-0.811
				 c1.114-0.404,1.873-1.18,2.278-2.328c0.405-1.148,0.608-3.004,0.608-5.57v-44.46l-23.191,55.701h-1.621l-23.496-55.6v41.523
				 c0,2.971,0.269,5.215,0.81,6.735c0.54,1.519,1.535,2.616,2.987,3.291c1.452,0.675,3.662,1.183,6.633,1.519v2.025
				 c-2.903-0.202-6.752-0.303-11.545-0.303c-3.713,0-6.651,0.101-8.81,0.303v-2.025c2.228-0.336,3.863-0.844,4.912-1.519
				 c1.045-0.675,1.755-1.755,2.126-3.241c0.371-1.484,0.557-3.747,0.557-6.785v-37.27c0-2.564-0.203-4.42-0.608-5.57
				 c-0.405-1.146-1.164-1.924-2.278-2.329c-1.115-0.405-2.887-0.674-5.317-0.811v-2.025c3.509,0.203,8.878,0.304,16.102,0.304
				 c3.511,0,6.515-0.102,9.014-0.304l16.812,40.409l16.913-40.105h9.014c6.548,0,11.646-0.102,15.292-0.304v2.025
				 C87.533,133.664,85.761,133.932,84.647,134.337z"/>
			 <path d="M153.057,131.501v2.025c-1.351,0.608-2.719,1.739-4.102,3.393c-1.384,1.656-3.023,4.136-4.912,7.444l-11.546,21.268
				 v16.103c0,2.7,0.237,4.676,0.71,5.925c0.471,1.249,1.349,2.093,2.633,2.531c1.282,0.44,3.308,0.727,6.077,0.861v2.025
				 c-3.511-0.202-9.317-0.303-17.419-0.303c-8.238,0-13.875,0.101-16.914,0.303v-2.025c2.769-0.134,4.794-0.421,6.077-0.861
				 c1.282-0.438,2.161-1.282,2.633-2.531c0.473-1.249,0.709-3.225,0.709-5.925v-10.938L98.875,139.3
				 c-1.148-1.958-2.161-3.342-3.039-4.152c-0.877-0.81-1.822-1.316-2.834-1.519v-2.127c4.185,0.339,8.168,0.507,11.95,0.507
				 c5.333,0,11.276-0.168,17.824-0.507v2.127c-2.025,0-3.612,0.186-4.759,0.557c-1.149,0.372-1.722,1.098-1.722,2.177
				 c0,0.878,0.371,1.925,1.114,3.14l13.773,24.002l6.482-11.849c2.564-4.726,3.848-8.609,3.848-11.647
				 c0-4.118-2.532-6.279-7.596-6.482v-2.025c4.119,0.203,7.9,0.304,11.343,0.304C148.634,131.806,151.234,131.704,153.057,131.501z"
				 />
			 <path d="M235.089,131.501v2.025c-1.756,0.676-3.375,1.975-4.862,3.899c-1.485,1.924-3.036,4.778-4.657,8.558l-19.851,47.295
				 c-0.541-0.067-1.317-0.102-2.329-0.102c-1.013,0-1.789,0.035-2.328,0.102l-25.017-53.271c-1.958-4.186-4.085-6.345-6.38-6.482
				 v-2.025c3.173,0.203,7.596,0.304,13.267,0.304c7.225,0,12.558-0.102,16.002-0.304v2.025c-2.229,0.137-3.883,0.491-4.962,1.063
				 c-1.082,0.574-1.621,1.503-1.621,2.785c0,1.283,0.438,2.836,1.317,4.658l16.305,35.447l10.229-23.8
				 c2.159-5.198,3.24-9.351,3.24-12.457c0-4.928-2.734-7.495-8.203-7.697v-2.025c3.848,0.203,8.001,0.304,12.456,0.304
				 C230.666,131.806,233.13,131.704,235.089,131.501z"/>
			 <path d="M268.51,133.527c-2.296,0.137-3.949,0.405-4.963,0.811s-1.705,1.183-2.076,2.329c-0.372,1.149-0.558,3.005-0.558,5.57
				 v40.105c0,2.566,0.186,4.422,0.558,5.57c0.371,1.148,1.062,1.924,2.076,2.328c1.014,0.406,2.667,0.677,4.963,0.811v2.025
				 c-3.444-0.202-8.439-0.303-14.99-0.303c-7.088,0-12.319,0.101-15.695,0.303v-2.025c2.293-0.134,3.95-0.405,4.961-0.811
				 c1.012-0.404,1.706-1.18,2.076-2.328c0.371-1.148,0.557-3.004,0.557-5.57v-40.105c0-2.564-0.186-4.42-0.557-5.57
				 c-0.37-1.146-1.08-1.924-2.125-2.329c-1.051-0.405-2.685-0.674-4.912-0.811v-2.025c3.307,0.203,8.54,0.304,15.695,0.304
				 c6.551,0,11.546-0.102,14.99-0.304V133.527z"/>
			 <path d="M328.971,193.076c-4.39-0.202-11.783-0.303-22.181-0.303c-13.908,0-24.374,0.101-31.396,0.303v-2.025
				 c2.295-0.134,3.949-0.405,4.963-0.811c1.012-0.404,1.705-1.18,2.075-2.328c0.371-1.148,0.558-3.004,0.558-5.57v-40.105
				 c0-2.564-0.187-4.42-0.558-5.57c-0.37-1.146-1.079-1.924-2.126-2.329c-1.048-0.405-2.685-0.674-4.912-0.811v-2.025
				 c7.021,0.203,17.487,0.304,31.396,0.304c9.453,0,16.17-0.102,20.152-0.304c-0.472,4.524-0.708,8.575-0.708,12.153
				 c0,2.633,0.102,4.727,0.306,6.279h-2.329c-1.015-5.806-2.771-9.94-5.27-12.406c-2.496-2.463-5.939-3.696-10.328-3.696h-3.748
				 c-1.756,0-3.072,0.152-3.949,0.455c-0.877,0.304-1.502,0.912-1.873,1.823c-0.372,0.912-0.558,2.347-0.558,4.304v20.661h4.761
				 c3.104,0,5.451-1.097,7.039-3.292c1.584-2.192,2.647-4.742,3.189-7.646h2.328c-0.203,2.296-0.303,4.929-0.303,7.899v4.051
				 c0,3.039,0.202,7.023,0.608,11.95h-2.33c-0.475-3.172-1.536-5.788-3.19-7.848c-1.655-2.059-4.103-3.089-7.342-3.089h-4.761v21.066
				 c0,1.958,0.186,3.392,0.558,4.303c0.371,0.912,0.996,1.519,1.873,1.823s2.193,0.457,3.949,0.457h4.354
				 c4.795,0,8.56-1.383,11.292-4.152c2.736-2.768,4.644-7.427,5.723-13.977h2.328c-0.2,1.891-0.301,4.323-0.301,7.293
				 C328.262,183.76,328.496,188.149,328.971,193.076z"/>
			 <path d="M426.699,131.501v2.025c-3.713,1.352-6.853,5.537-9.417,12.558l-17.015,47.194c-0.475-0.067-1.249-0.102-2.328-0.102
				 c-1.014,0-1.791,0.035-2.331,0.102l-15.192-37.27l-14.886,37.27c-0.541-0.067-1.317-0.102-2.33-0.102
				 c-1.012,0-1.789,0.035-2.328,0.102l-22.587-53.271c-1.821-4.186-3.949-6.345-6.379-6.482v-2.025
				 c3.173,0.203,7.597,0.304,13.268,0.304c6.616,0,11.545-0.102,14.785-0.304v2.025c-3.377,0.203-5.063,1.588-5.063,4.153
				 c0,1.283,0.339,2.734,1.013,4.354l13.773,34.434l9.521-23.394l-5.269-13.065c-0.878-2.16-1.889-3.763-3.037-4.811
				 c-1.147-1.046-2.264-1.603-3.343-1.671v-2.025c3.106,0.203,7.527,0.304,13.268,0.304c6.885,0,12.016-0.102,15.395-0.304v2.025
				 c-2.229,0.137-3.833,0.491-4.811,1.063c-0.98,0.574-1.469,1.537-1.469,2.887c0,1.215,0.336,2.734,1.011,4.556l12.863,34.637
				 l8.001-22.584c1.956-5.266,2.937-9.485,2.937-12.66c0-2.7-0.675-4.659-2.025-5.874c-1.351-1.215-3.308-1.889-5.872-2.026v-2.025
				 c3.848,0.203,7.728,0.304,11.644,0.304C422.005,131.806,424.74,131.704,426.699,131.501z"/>
		 </g>
		 <path d="M67.974,307.492c0,0,141.995-192.532,294.53,0C362.504,307.492,235.701,513.043,67.974,307.492z"/>
		 <circle fill="#FFFFFF" stroke="#231F20" stroke-miterlimit="10" cx="215.239" cy="310.384" r="62.317"/>
		 <circle cx="215.239" cy="310.384" r="33.018"/>
		 <g>
			 <path d="M53.742,40.605c2.431,1.114,4.929,2.753,7.495,4.913c0.742,0.607,1.383,0.911,1.925,0.911c1.35,0,2.228-2.026,2.633-6.077
				 h2.329c-0.271,4.051-0.405,11.14-0.405,21.268h-2.329c-0.676-3.646-1.352-6.294-2.025-7.95c-0.675-1.653-1.689-3.324-3.038-5.013
				 c-1.891-2.228-4.036-3.965-6.431-5.215c-2.397-1.249-4.879-1.874-7.444-1.874c-3.714,0-6.955,1.2-9.723,3.595
				 c-2.768,2.398-4.911,5.824-6.43,10.28c-1.519,4.457-2.279,9.757-2.279,15.9c0,6.213,0.827,11.529,2.481,15.951
				 c1.654,4.423,3.932,7.765,6.835,10.026c2.903,2.263,6.178,3.393,9.824,3.393c2.633,0,5.215-0.623,7.748-1.874
				 c2.531-1.249,4.709-2.988,6.532-5.216c1.35-1.687,2.33-3.509,2.938-5.469c0.608-1.958,1.18-4.793,1.722-8.507h2.329
				 c0,10.601,0.134,18.027,0.405,22.28h-2.33c-0.203-2.092-0.505-3.628-0.911-4.608c-0.405-0.978-0.946-1.469-1.621-1.469
				 c-0.542,0-1.215,0.304-2.025,0.912c-2.499,2.093-5.099,3.713-7.799,4.861c-2.701,1.147-5.941,1.722-9.722,1.722
				 c-6.414,0-12.085-1.25-17.014-3.747c-4.929-2.498-8.76-6.11-11.495-10.837c-2.734-4.725-4.102-10.396-4.102-17.014
				 c0-6.414,1.418-12.119,4.253-17.115c2.836-4.996,6.701-8.862,11.597-11.596c4.895-2.735,10.414-4.102,16.558-4.102
				 C48.138,38.934,51.312,39.491,53.742,40.605z"/>
			 <path d="M149.649,42.378c-2.296,0.136-3.949,0.404-4.962,0.81c-1.013,0.405-1.706,1.183-2.076,2.33
				 c-0.372,1.149-0.557,3.005-0.557,5.569v40.105c0,2.566,0.186,4.422,0.557,5.57c0.371,1.148,1.079,1.923,2.127,2.329
				 c1.045,0.405,2.683,0.676,4.911,0.811v2.025c-3.106-0.203-8.036-0.304-14.787-0.304c-6.82,0-12.119,0.101-15.899,0.304v-2.025
				 c2.294-0.135,3.949-0.405,4.962-0.811s1.705-1.181,2.076-2.329s0.557-3.004,0.557-5.57V71.545h-26.027v19.647
				 c0,2.566,0.186,4.422,0.557,5.57s1.079,1.923,2.127,2.329c1.045,0.405,2.683,0.676,4.911,0.811v2.025
				 c-3.714-0.203-9.013-0.304-15.9-0.304c-6.618,0-11.545,0.101-14.786,0.304v-2.025c2.295-0.135,3.949-0.405,4.962-0.811
				 c1.013-0.405,1.705-1.181,2.076-2.329c0.371-1.148,0.557-3.004,0.557-5.57V51.087c0-2.564-0.186-4.42-0.557-5.569
				 c-0.372-1.147-1.081-1.925-2.126-2.33c-1.048-0.405-2.685-0.674-4.913-0.81v-2.026c3.241,0.203,8.168,0.304,14.786,0.304
				 c6.887,0,12.186-0.102,15.9-0.304v2.026c-2.296,0.136-3.95,0.404-4.962,0.81c-1.013,0.405-1.706,1.183-2.077,2.33
				 c-0.371,1.149-0.557,3.005-0.557,5.569v18.432h26.027V51.087c0-2.564-0.186-4.42-0.557-5.569c-0.371-1.147-1.081-1.925-2.126-2.33
				 c-1.048-0.405-2.684-0.674-4.912-0.81v-2.026c3.781,0.203,9.08,0.304,15.899,0.304c6.75,0,11.68-0.102,14.787-0.304V42.378z"/>
			 <path d="M217.4,99.902v2.025c-3.24-0.203-7.663-0.304-13.266-0.304c-7.226,0-12.559,0.101-16.001,0.304v-2.025
				 c2.228-0.135,3.881-0.489,4.961-1.063c1.081-0.572,1.62-1.536,1.62-2.886c0-1.216-0.438-2.735-1.315-4.558l-5.064-11.545h-21.268
				 l-1.215,2.734c-1.891,4.457-2.835,7.934-2.835,10.431c0,2.296,0.741,3.985,2.228,5.064c1.483,1.081,3.68,1.688,6.582,1.823v2.025
				 c-3.849-0.203-7.731-0.304-11.646-0.304c-3.646,0-6.381,0.101-8.203,0.304v-2.025c1.619-0.337,3.121-1.367,4.505-3.089
				 c1.383-1.721,2.852-4.303,4.406-7.747l21.37-48.916c0.54,0.068,1.315,0.102,2.328,0.102c1.08,0,1.856-0.033,2.329-0.102
				 l24.104,53.271C212.978,97.607,215.104,99.767,217.4,99.902z M187.423,77.824l-9.722-22.179l-9.723,22.179H187.423z"/>
			 <path d="M283.534,42.378c-2.228,0.338-3.866,0.845-4.912,1.52c-1.048,0.675-1.756,1.756-2.127,3.24
				 c-0.372,1.486-0.557,3.747-0.557,6.785v48.207l-2.733-0.102l-2.636,0.102l-40.509-50.333v36.56c0,2.972,0.269,5.215,0.809,6.735
				 c0.543,1.518,1.52,2.616,2.938,3.292c1.419,0.675,3.646,1.181,6.683,1.519v2.025c-3.036-0.203-6.885-0.304-11.544-0.304
				 c-3.715,0-6.65,0.101-8.812,0.304v-2.025c2.229-0.337,3.866-0.844,4.912-1.519c1.047-0.675,1.756-1.756,2.129-3.241
				 c0.369-1.485,0.556-3.747,0.556-6.786v-37.27c0-2.564-0.187-4.42-0.556-5.569c-0.373-1.147-1.082-1.925-2.129-2.33
				 c-1.046-0.405-2.683-0.674-4.912-0.81v-2.026c2.162,0.203,5.098,0.304,8.812,0.304c4.794,0,8.913-0.102,12.354-0.304
				 l32.307,40.104V53.923c0-2.97-0.269-5.215-0.811-6.735c-0.541-1.519-1.534-2.615-2.986-3.291c-1.453-0.675-3.662-1.181-6.635-1.52
				 v-2.026c2.973,0.203,6.82,0.304,11.547,0.304c3.78,0,6.718-0.102,8.812-0.304V42.378z"/>
			 <path d="M334.475,40.555c2.431,1.081,5.131,2.734,8.102,4.963c0.876,0.676,1.551,1.013,2.025,1.013
				 c1.281,0,2.127-2.059,2.532-6.178h2.33c-0.271,3.848-0.405,10.601-0.405,20.255h-2.33c-1.08-5.267-2.768-9.25-5.063-11.951
				 c-2.093-2.294-4.203-4.051-6.33-5.266c-2.125-1.215-4.708-1.823-7.748-1.823c-4.388,0-8.22,1.215-11.493,3.646
				 c-3.277,2.431-5.791,5.891-7.546,10.381c-1.754,4.491-2.634,9.706-2.634,15.647c0,10.33,1.688,17.925,5.064,22.787
				 c3.375,4.861,8.407,7.292,15.091,7.292c2.294,0,4.22-0.472,5.771-1.418c1.418-0.877,2.129-2.329,2.129-4.354v-9.419
				 c0-2.835-0.255-4.895-0.76-6.177c-0.509-1.283-1.402-2.161-2.685-2.633c-1.282-0.472-3.342-0.776-6.178-0.912V74.38
				 c4.387,0.203,9.958,0.305,16.71,0.305c5.736,0,10.061-0.102,12.964-0.305v2.025c-1.418,0.136-2.432,0.405-3.038,0.811
				 c-0.608,0.405-1.014,1.164-1.217,2.279c-0.202,1.114-0.303,2.987-0.303,5.621v16.812h-2.026c-0.271-2.497-0.979-3.747-2.125-3.747
				 c-1.083,0-2.771,0.608-5.065,1.823c-5.064,2.227-10.263,3.341-15.597,3.341c-11.006,0-19.579-2.717-25.724-8.153
				 c-6.144-5.433-9.217-13.046-9.217-22.837c0-6.75,1.485-12.642,4.457-17.673c2.972-5.028,7.106-8.912,12.406-11.646
				 c5.299-2.735,11.358-4.102,18.178-4.102C328.803,38.934,332.044,39.476,334.475,40.555z"/>
			 <path d="M413.365,101.927c-4.389-0.203-11.782-0.304-22.177-0.304c-13.911,0-24.376,0.101-31.396,0.304v-2.025
				 c2.293-0.135,3.949-0.405,4.96-0.811c1.014-0.405,1.706-1.181,2.079-2.329c0.369-1.148,0.555-3.004,0.555-5.57V51.087
				 c0-2.564-0.186-4.42-0.555-5.569c-0.373-1.147-1.083-1.925-2.127-2.33c-1.049-0.405-2.684-0.674-4.912-0.81v-2.026
				 c7.02,0.203,17.484,0.304,31.396,0.304c9.45,0,16.167-0.102,20.153-0.304c-0.475,4.524-0.708,8.576-0.708,12.153
				 c0,2.633,0.1,4.727,0.302,6.279h-2.33c-1.011-5.806-2.768-9.94-5.265-12.407c-2.499-2.463-5.943-3.695-10.33-3.695h-3.747
				 c-1.756,0-3.075,0.151-3.949,0.455c-0.88,0.304-1.505,0.912-1.876,1.823c-0.371,0.913-0.556,2.348-0.556,4.305v20.66h4.76
				 c3.106,0,5.451-1.096,7.039-3.292c1.585-2.192,2.649-4.743,3.189-7.646h2.33c-0.202,2.296-0.305,4.929-0.305,7.899v4.051
				 c0,3.038,0.205,7.023,0.607,11.951h-2.329c-0.472-3.172-1.537-5.789-3.19-7.849c-1.654-2.059-4.102-3.089-7.342-3.089h-4.76
				 v21.065c0,1.959,0.185,3.393,0.556,4.305c0.371,0.911,0.996,1.519,1.876,1.823c0.874,0.303,2.193,0.456,3.949,0.456h4.355
				 c4.792,0,8.556-1.384,11.292-4.153c2.733-2.768,4.64-7.426,5.723-13.976h2.328c-0.203,1.891-0.305,4.321-0.305,7.292
				 C412.657,92.61,412.893,97,413.365,101.927z"/>
		 </g>
	 </g>
	 <g id="Layer_2">
	 </g>
	 </svg>